<?xml version="1.0" encoding="UTF-8" standalone="no"?>
<!-- Generator: Adobe Illustrator 17.0.0, SVG Export Plug-In . SVG Version: 6.00 Build 0)  -->

<svg
   xmlns:dc="http://purl.org/dc/elements/1.1/"
   xmlns:cc="http://creativecommons.org/ns#"
   xmlns:rdf="http://www.w3.org/1999/02/22-rdf-syntax-ns#"
   xmlns:svg="http://www.w3.org/2000/svg"
   xmlns="http://www.w3.org/2000/svg"
   xmlns:sodipodi="http://sodipodi.sourceforge.net/DTD/sodipodi-0.dtd"
   xmlns:inkscape="http://www.inkscape.org/namespaces/inkscape"
   version="1.1"
   id="Capa_1"
   x="0px"
   y="0px"
   width="15.051px"
   height="22.572px"
   viewBox="0 0 15.051 22.572"
   enable-background="new 0 0 15.051 22.572"
   xml:space="preserve"
   inkscape:version="0.91 r13725"
   sodipodi:docname="localization_with_heart.svg"><metadata
   id="metadata3343"><rdf:RDF><cc:Work
       rdf:about=""><dc:format>image/svg+xml</dc:format><dc:type
         rdf:resource="http://purl.org/dc/dcmitype/StillImage" /><dc:title></dc:title></cc:Work></rdf:RDF></metadata><defs
   id="defs3341" /><sodipodi:namedview
   pagecolor="#ffffff"
   bordercolor="#666666"
   borderopacity="1"
   objecttolerance="10"
   gridtolerance="10"
   guidetolerance="10"
   inkscape:pageopacity="0"
   inkscape:pageshadow="2"
   inkscape:window-width="1920"
   inkscape:window-height="1019"
   id="namedview3339"
   showgrid="false"
   inkscape:zoom="36.150983"
   inkscape:cx="7.5254998"
   inkscape:cy="11.286"
   inkscape:window-x="-9"
   inkscape:window-y="-9"
   inkscape:window-maximized="1"
   inkscape:current-layer="Capa_1" />
<path
   d="M7.524,0.554c-3.95,0-7.155,3.205-7.155,7.157c0,0.772,0.126,1.513,0.352,2.209c0.507,1.789,6.353,12.099,6.353,12.099  s6.209-9.015,7.148-11.802c0.293-0.78,0.46-1.622,0.46-2.506C14.682,3.758,11.479,0.554,7.524,0.554z M7.524,12.301  c-2.521,0-4.564-2.044-4.564-4.564c0-2.523,2.044-4.567,4.564-4.567c2.522,0,4.566,2.045,4.566,4.567  C12.09,10.256,10.047,12.301,7.524,12.301z M9.256,4.958C9.203,4.952,9.149,4.949,9.093,4.949c-0.561,0-1.196,0.271-1.567,0.785  C7.155,5.22,6.52,4.949,5.96,4.949c-0.055,0-0.111,0.002-0.164,0.009c-0.648,0.068-1.102,0.284-1.387,0.66  c-0.283,0.372-0.376,0.88-0.273,1.512c0.251,1.534,3.09,3.995,3.21,4.099c0.055,0.048,0.124,0.07,0.191,0.07  c0.069,0,0.137-0.023,0.193-0.07c0.12-0.106,2.935-2.565,3.184-4.099c0.104-0.63,0.013-1.139-0.269-1.51  C10.357,5.242,9.903,5.026,9.256,4.958z M10.51,7.367c0,0-0.11-1.646-1.572-1.865C8.938,5.501,10.694,5.246,10.51,7.367z"
   id="path3337" />
<path
   style="fill:#ff0000;stroke:none;stroke-width:1px;stroke-linecap:butt;stroke-linejoin:miter;stroke-opacity:1"
   d="M 6.8314103,21.558993 C 5.3199188,18.873927 3.6746391,15.871334 2.668009,13.960893 2.1167682,12.914716 1.1710968,11.011736 0.98408691,10.572327 0.42419455,9.2567708 0.25316057,7.8669372 0.48422847,6.5104435 0.92895112,3.899681 2.817791,1.7214911 5.3411653,0.9094766 5.7099008,0.79081862 6.170356,0.68746063 6.6098954,0.62468593 7.0610693,0.56024961 7.9808589,0.55995813 8.4355719,0.62410736 10.343399,0.89325666 11.949765,1.8058168 13.134389,3.2934587 14.209256,4.6432682 14.77421,6.451026 14.65099,8.1463332 14.543579,9.6241359 14.120932,10.742536 12.798613,13.048055 11.603819,15.13123 9.4436784,18.516656 7.3239092,21.628148 L 7.0755527,21.992696 6.8314103,21.558993 Z M 8.2281087,12.259586 C 9.9984586,11.964348 11.428171,10.707254 11.918684,9.0145951 12.234607,7.9244106 12.130389,6.7375585 11.628924,5.7147586 10.832757,4.0908775 9.1469407,3.0889128 7.3432835,3.1675881 6.1693876,3.2187932 5.136552,3.666068 4.3161644,4.4784973 3.6204898,5.1674236 3.1856485,5.9984463 3.0091646,6.9762972 2.9513199,7.2967994 2.9432497,8.1077696 2.9948506,8.414709 c 0.3502342,2.083313 1.9419307,3.617748 4.0161404,3.871661 0.2500325,0.03061 0.9676741,0.01482 1.2171177,-0.02678 z"
   id="path3345"
   inkscape:connector-curvature="0" /><path
   style="fill:#ff2a2a"
   d="M 7.4380051,11.265969 C 7.269574,11.194689 6.0792271,10.030526 5.5310865,9.400997 4.6854794,8.4298323 4.2546279,7.7086555 4.1448872,7.0807194 4.0921999,6.779243 4.1063528,6.3555273 4.1770178,6.1187825 4.3688363,5.4761445 4.8900652,5.0910052 5.7138157,4.9832329 6.303612,4.9060691 6.8640592,5.0963505 7.3144895,5.5266892 L 7.5267062,5.7294396 7.7183521,5.5420822 C 8.166304,5.1041547 8.7391603,4.9057165 9.3316516,4.9832329 c 0.8800294,0.1151354 1.4192744,0.5467487 1.5709934,1.2574277 0.05102,0.2390078 0.03445,0.7778593 -0.03144,1.022051 -0.157981,0.5855224 -0.649895,1.355884 -1.4333094,2.2446371 -0.3201341,0.3631797 -1.4991753,1.5409423 -1.682351,1.6805263 -0.1109519,0.08455 -0.2319674,0.11431 -0.3175435,0.07809 z M 10.51679,6.9209737 C 10.501459,6.5431012 10.436609,6.2964667 10.292885,6.0694257 10.061726,5.7042639 9.6259481,5.4840422 9.1323989,5.4829708 8.9252471,5.482521 8.9044416,5.5210265 9.0962914,5.5497961 c 0.067097,0.010062 0.2255463,0.06837 0.3521086,0.1295744 0.5185289,0.2507548 0.925123,0.863285 1.035328,1.5597135 0.03378,0.2134534 0.04877,0.069166 0.03306,-0.3181103 z"
   id="path3347"
   inkscape:connector-curvature="0" /><path
   style="fill:#2a2aff"
   d="M 6.2430733,20.481879 C 4.0384934,16.531781 2.9362744,14.487009 1.9078883,12.439496 0.93685312,10.506168 0.80091128,10.188412 0.6104542,9.4068212 0.44700893,8.7360801 0.41512924,8.4571867 0.41483717,7.6955031 0.41455302,6.9544665 0.44597264,6.6646006 0.59323945,6.0496281 1.2134536,3.4596711 3.2605557,1.4079223 5.8502928,0.7806422 6.779002,0.5556924 7.933377,0.52468383 8.8228366,0.70079436 10.019947,0.93781885 11.039953,1.400675 11.948538,2.1191693 c 0.328827,0.2600302 0.867183,0.7948118 1.130294,1.1227896 0.834802,1.0406088 1.394137,2.3910808 1.537636,3.7125018 0.04169,0.3838842 0.03601,1.1393633 -0.01163,1.5466083 -0.08344,0.7133356 -0.27935,1.42951 -0.596852,2.181905 -0.677639,1.605822 -2.788564,5.103108 -5.7936329,9.598632 -0.5339199,0.798734 -1.0092074,1.505022 -1.0561945,1.569531 l -0.085431,0.117287 -0.8296524,-1.486545 z m 2.1769679,-8.250405 c 1.8159878,-0.37898 3.2133488,-1.77009 3.5977318,-3.58164 0.07565,-0.3565355 0.103651,-1.0627246 0.05719,-1.4423876 C 11.831929,5.2215236 10.390262,3.6508255 8.4355719,3.242324 7.8596113,3.1219568 7.0597307,3.1384449 6.4439248,3.2833784 4.9265522,3.6405008 3.6545633,4.8162854 3.1670487,6.3124148 2.9975983,6.8324397 2.9641204,7.0656536 2.9625496,7.7369958 c -0.00123,0.5276805 0.0066,0.6446367 0.058971,0.8800225 0.1370043,0.6158079 0.3943074,1.2207754 0.7238658,1.7019437 0.7532631,1.099793 1.8493287,1.766922 3.2517736,1.979218 0.045642,0.0069 0.3194934,0.0083 0.6085588,0.0031 0.4045376,-0.0073 0.5920705,-0.02338 0.8143223,-0.06976 z"
   id="path3349"
   inkscape:connector-curvature="0" /></svg>